<svg width="200" height="200" viewBox="0 0 200 200" fill="none" xmlns="http://www.w3.org/2000/svg">
<rect width="200" height="200" rx="15" fill="#F3390A"/>
<path d="M95.5938 91.6875H99.5V126.844H103.406M150.281 99.5C150.281 112.968 144.931 125.884 135.408 135.408C125.884 144.931 112.968 150.281 99.5 150.281C86.032 150.281 73.1156 144.931 63.5922 135.408C54.0689 125.884 48.7188 112.968 48.7188 99.5C48.7187 86.032 54.0689 73.1156 63.5922 63.5922C73.1156 54.0689 86.032 48.7188 99.5 48.7188C112.968 48.7187 125.884 54.0689 135.408 63.5922C144.931 73.1156 150.281 86.032 150.281 99.5Z" stroke="white" stroke-width="4" stroke-linecap="round" stroke-linejoin="round"/>
<path d="M99.5 69C102.322 69 104.609 71.2875 104.609 74.1094C104.609 76.9312 102.322 79.2188 99.5 79.2188C96.6782 79.2188 94.3906 76.9312 94.3906 74.1094C94.3906 71.2875 96.6782 69 99.5 69Z" fill="white" stroke="white" stroke-width="1.5"/>
</svg>
