<svg width="200" height="200" viewBox="0 0 200 200" fill="none" xmlns="http://www.w3.org/2000/svg">
<rect width="200" height="200" rx="15" fill="#F3390A"/>
<circle cx="111.219" cy="72.1562" r="3.15625" fill="white" stroke="white" stroke-width="1.5"/>
<path d="M72.1562 70.1562C71.0517 70.1562 70.1562 71.0517 70.1562 72.1562C70.1562 73.2608 71.0517 74.1562 72.1562 74.1562V72.1562V70.1562ZM87.7812 74.1562C88.8858 74.1562 89.7812 73.2608 89.7812 72.1562C89.7812 71.0517 88.8858 70.1562 87.7812 70.1562V72.1562V74.1562ZM72.1562 93.5938C71.0517 93.5938 70.1562 94.4892 70.1562 95.5938C70.1562 96.6983 71.0517 97.5938 72.1562 97.5938V95.5938V93.5938ZM111.219 97.5938C112.323 97.5938 113.219 96.6983 113.219 95.5938C113.219 94.4892 112.323 93.5938 111.219 93.5938V95.5938V97.5938ZM72.1562 109.219C71.0517 109.219 70.1562 110.114 70.1562 111.219C70.1562 112.323 71.0517 113.219 72.1562 113.219V111.219V109.219ZM103.406 113.219C104.511 113.219 105.406 112.323 105.406 111.219C105.406 110.114 104.511 109.219 103.406 109.219V111.219V113.219ZM142.469 76.0625H140.469V142.469H142.469H144.469V76.0625H142.469ZM134.656 150.281V148.281H79.9688V150.281V152.281H134.656V150.281ZM79.9688 150.281V148.281C76.7586 148.281 74.1562 145.679 74.1562 142.469H72.1562H70.1562C70.1562 147.888 74.5495 152.281 79.9688 152.281V150.281ZM142.469 142.469H140.469C140.469 145.679 137.866 148.281 134.656 148.281V150.281V152.281C140.076 152.281 144.469 147.888 144.469 142.469H142.469ZM134.656 68.25V70.25C137.866 70.25 140.469 72.8523 140.469 76.0625H142.469H144.469C144.469 70.6432 140.076 66.25 134.656 66.25V68.25ZM72.1562 142.469H74.1562V134.656H72.1562H70.1562V142.469H72.1562ZM134.656 68.25V66.25H126.844V68.25V70.25H134.656V68.25ZM72.1562 72.1562V74.1562H87.7812V72.1562V70.1562H72.1562V72.1562ZM72.1562 95.5938V97.5938H111.219V95.5938V93.5938H72.1562V95.5938ZM72.1562 111.219V113.219H103.406V111.219V109.219H72.1562V111.219ZM64.3438 52.625V54.625H119.031V52.625V50.625H64.3438V52.625ZM126.844 60.4375H124.844V126.844H126.844H128.844V60.4375H126.844ZM119.031 134.656V132.656H64.3437V134.656V136.656H119.031V134.656ZM56.5312 126.844H58.5312V60.4375H56.5312H54.5312V126.844H56.5312ZM64.3437 134.656V132.656C61.1336 132.656 58.5312 130.054 58.5312 126.844H56.5312H54.5312C54.5312 132.263 58.9245 136.656 64.3437 136.656V134.656ZM126.844 126.844H124.844C124.844 130.054 122.241 132.656 119.031 132.656V134.656V136.656C124.451 136.656 128.844 132.263 128.844 126.844H126.844ZM119.031 52.625V54.625C122.241 54.625 124.844 57.2273 124.844 60.4375H126.844H128.844C128.844 55.0182 124.451 50.625 119.031 50.625V52.625ZM64.3438 52.625V50.625C58.9245 50.625 54.5312 55.0182 54.5312 60.4375H56.5312H58.5312C58.5312 57.2273 61.1336 54.625 64.3438 54.625V52.625Z" fill="white"/>
</svg>
