<svg width="200" height="200" viewBox="0 0 200 200" fill="none" xmlns="http://www.w3.org/2000/svg">
<rect width="200" height="200" rx="15" fill="#F3390A"/>
<path d="M99.5 134.656H79.9688L64.3438 95.5938C72.1562 92.9896 87.7812 79.9688 87.7812 48.7188H111.219C111.219 78.4062 126.844 92.3385 134.656 95.5938L119.031 134.656H99.5ZM99.5 134.656V111.219M99.5 87.7812V48.7188M72.1562 134.656H126.844V150.281H72.1562V134.656ZM107.312 99.5C107.312 103.815 103.815 107.312 99.5 107.312C95.1853 107.312 91.6875 103.815 91.6875 99.5C91.6875 95.1853 95.1853 91.6875 99.5 91.6875C103.815 91.6875 107.312 95.1853 107.312 99.5Z" stroke="white" stroke-width="4" stroke-linecap="round" stroke-linejoin="round"/>
</svg>
