<svg width="200" height="200" viewBox="0 0 200 200" fill="none" xmlns="http://www.w3.org/2000/svg">
<rect width="200" height="200" rx="15" fill="#F3390A"/>
<path d="M150.281 99.5C150.281 111.219 127.546 134.656 99.5 134.656C71.4543 134.656 48.7188 111.219 48.7188 99.5C48.7188 87.7812 71.4543 64.3438 99.5 64.3438C127.546 64.3438 150.281 87.7812 150.281 99.5Z" fill="#F3390A"/>
<path d="M119.031 99.5C119.031 110.287 110.287 119.031 99.5 119.031C88.7132 119.031 79.9688 110.287 79.9688 99.5C79.9688 88.7132 88.7132 79.9688 99.5 79.9688C110.287 79.9688 119.031 88.7132 119.031 99.5Z" fill="#F3390A"/>
<path d="M150.281 99.5C150.281 111.219 127.546 134.656 99.5 134.656C71.4543 134.656 48.7188 111.219 48.7188 99.5C48.7188 87.7812 71.4543 64.3438 99.5 64.3438C127.546 64.3438 150.281 87.7812 150.281 99.5Z" stroke="white" stroke-width="5" stroke-linejoin="round"/>
<path d="M119.031 99.5C119.031 110.287 110.287 119.031 99.5 119.031C88.7132 119.031 79.9688 110.287 79.9688 99.5C79.9688 88.7132 88.7132 79.9688 99.5 79.9688C110.287 79.9688 119.031 88.7132 119.031 99.5Z" stroke="white" stroke-width="5" stroke-linejoin="round"/>
</svg>
